# xmcd CD database file
#
# Track frame offsets:
#	150
#	19065
#	39560
#
# Disc length: 779 seconds
#
# Revision: 0
# Processed by: cddbd v1.5PL3 Copyright (c) Steve Scherf et al.
# Submitted via: CDex 1.51
#
DISCID=1b030903
DTITLE=知念里奈 - Be proud
DYEAR=1999
DGENRE=JPop
TTITLE0=Be proud
TTITLE1=Reset
TTITLE2=Be proud (Backing Track)
EXTD=YEAR: 1999
EXTT0=
EXTT1=
EXTT2=
PLAYORDER=
